<?xml version="1.0" standalone="no"?>
 <!DOCTYPE svg PUBLIC "-//W3C//DTD SVG 1.1//EN" 
 "http://www.w3.org/Graphics/SVG/1.1/DTD/svg11.dtd"> 
<svg
  xmlns:svg="http://www.w3.org/2000/svg"
  xmlns="http://www.w3.org/2000/svg"
  xmlns:xlink="http://www.w3.org/1999/xlink"
  version="1.1"
  width="16.1290mm" height="51.1302mm" viewBox="0.0000 0.0000 16.1290 51.1302">
<title>SVG Image created as studyofhands-brd.svg date 2024/12/26 16:17:52 </title>
  <desc>Image generated by PCBNEW </desc>
<g style="fill:#000000; fill-opacity:1.0000;stroke:#000000; stroke-opacity:1.0000;
stroke-linecap:round; stroke-linejoin:round;"
 transform="translate(0 0) scale(1 1)">
</g>
<g style="fill:none; 
stroke:#C2C2C2; stroke-width:0.1500; stroke-opacity:1; 
stroke-linecap:round; stroke-linejoin:round;">
<path d="M1.0750 37.0750
L1.0750 36.0750
" />
<path d="M1.0750 50.0750
L2.0750 50.0750
" />
<path d="M2.0750 36.0750
L1.0750 36.0750
" />
<path d="M1.0750 50.0750
L1.0750 49.0750
" />
<path d="M15.0750 49.0750
L15.0750 50.0750
" />
<path d="M15.0750 36.0750
L14.0750 36.0750
" />
<path d="M14.0750 50.0750
L15.0750 50.0750
" />
<path d="M15.0750 36.0750
L15.0750 37.0750
" />
<path d="M1.0750 19.5750
L1.0750 18.5750
" />
<path d="M1.0750 32.5750
L2.0750 32.5750
" />
<path d="M2.0750 18.5750
L1.0750 18.5750
" />
<path d="M1.0750 32.5750
L1.0750 31.5750
" />
<path d="M15.0750 31.5750
L15.0750 32.5750
" />
<path d="M15.0750 18.5750
L14.0750 18.5750
" />
<path d="M14.0750 32.5750
L15.0750 32.5750
" />
<path d="M15.0750 18.5750
L15.0750 19.5750
" />
<path d="M1.0750 2.0750
L1.0750 1.0750
" />
<path d="M1.0750 15.0750
L2.0750 15.0750
" />
<path d="M2.0750 1.0750
L1.0750 1.0750
" />
<path d="M1.0750 15.0750
L1.0750 14.0750
" />
<path d="M15.0750 14.0750
L15.0750 15.0750
" />
<path d="M15.0750 1.0750
L14.0750 1.0750
" />
<path d="M14.0750 15.0750
L15.0750 15.0750
" />
<path d="M15.0750 1.0750
L15.0750 2.0750
" />
</g>
<g style="fill:#C2C2C2; fill-opacity:1.0000; stroke:none;">
<circle cx="8.0750" cy="43.0750" r="1.7145" /> 
</g>
<g style="fill:#C2C2C2; fill-opacity:1.0000; stroke:none;">
<circle cx="13.5750" cy="43.0750" r="0.8509" /> 
</g>
<g style="fill:#C2C2C2; fill-opacity:1.0000; stroke:none;">
<circle cx="2.5750" cy="43.0750" r="0.8509" /> 
</g>
<g style="fill:#C2C2C2; fill-opacity:1.0000; stroke:none;">
<circle cx="13.0750" cy="39.2750" r="0.6350" /> 
</g>
<g style="fill:#C2C2C2; fill-opacity:1.0000; stroke:none;">
<circle cx="8.0750" cy="37.1750" r="0.6350" /> 
</g>
<g style="fill:#C2C2C2; fill-opacity:1.0000; stroke:none;">
<circle cx="8.0750" cy="25.5750" r="1.7145" /> 
</g>
<g style="fill:#C2C2C2; fill-opacity:1.0000; stroke:none;">
<circle cx="13.5750" cy="25.5750" r="0.8509" /> 
</g>
<g style="fill:#C2C2C2; fill-opacity:1.0000; stroke:none;">
<circle cx="2.5750" cy="25.5750" r="0.8509" /> 
</g>
<g style="fill:#C2C2C2; fill-opacity:1.0000; stroke:none;">
<circle cx="13.0750" cy="21.7750" r="0.6350" /> 
</g>
<g style="fill:#C2C2C2; fill-opacity:1.0000; stroke:none;">
<circle cx="8.0750" cy="19.6750" r="0.6350" /> 
</g>
<g style="fill:#C2C2C2; fill-opacity:1.0000; stroke:none;">
<circle cx="8.0750" cy="8.0750" r="1.7145" /> 
</g>
<g style="fill:#C2C2C2; fill-opacity:1.0000; stroke:none;">
<circle cx="13.5750" cy="8.0750" r="0.8509" /> 
</g>
<g style="fill:#C2C2C2; fill-opacity:1.0000; stroke:none;">
<circle cx="2.5750" cy="8.0750" r="0.8509" /> 
</g>
<g style="fill:#C2C2C2; fill-opacity:1.0000; stroke:none;">
<circle cx="13.0750" cy="4.2750" r="0.6350" /> 
</g>
<g style="fill:#C2C2C2; fill-opacity:1.0000; stroke:none;">
<circle cx="8.0750" cy="2.1750" r="0.6350" /> 
</g>
<g style="fill:#000000; fill-opacity:1.0000; stroke:none;">
<circle cx="8.0750" cy="43.0750" r="1.7145" /> 
</g>
<g style="fill:#000000; fill-opacity:1.0000; stroke:none;">
<circle cx="13.5750" cy="43.0750" r="0.8509" /> 
</g>
<g style="fill:#000000; fill-opacity:1.0000; stroke:none;">
<circle cx="2.5750" cy="43.0750" r="0.8509" /> 
</g>
<g style="fill:#000000; fill-opacity:1.0000; stroke:none;">
<circle cx="13.0750" cy="39.2750" r="0.6350" /> 
</g>
<g style="fill:#000000; fill-opacity:1.0000; stroke:none;">
<circle cx="8.0750" cy="37.1750" r="0.6350" /> 
</g>
<g style="fill:#000000; fill-opacity:1.0000; stroke:none;">
<circle cx="8.0750" cy="25.5750" r="1.7145" /> 
</g>
<g style="fill:#000000; fill-opacity:1.0000; stroke:none;">
<circle cx="13.5750" cy="25.5750" r="0.8509" /> 
</g>
<g style="fill:#000000; fill-opacity:1.0000; stroke:none;">
<circle cx="2.5750" cy="25.5750" r="0.8509" /> 
</g>
<g style="fill:#000000; fill-opacity:1.0000; stroke:none;">
<circle cx="13.0750" cy="21.7750" r="0.6350" /> 
</g>
<g style="fill:#000000; fill-opacity:1.0000; stroke:none;">
<circle cx="8.0750" cy="19.6750" r="0.6350" /> 
</g>
<g style="fill:#000000; fill-opacity:1.0000; stroke:none;">
<circle cx="8.0750" cy="8.0750" r="1.7145" /> 
</g>
<g style="fill:#000000; fill-opacity:1.0000; stroke:none;">
<circle cx="13.5750" cy="8.0750" r="0.8509" /> 
</g>
<g style="fill:#000000; fill-opacity:1.0000; stroke:none;">
<circle cx="2.5750" cy="8.0750" r="0.8509" /> 
</g>
<g style="fill:#000000; fill-opacity:1.0000; stroke:none;">
<circle cx="13.0750" cy="4.2750" r="0.6350" /> 
</g>
<g style="fill:#000000; fill-opacity:1.0000; stroke:none;">
<circle cx="8.0750" cy="2.1750" r="0.6350" /> 
</g>
<g style="fill:none; 
stroke:#C2C200; stroke-width:0.1500; stroke-opacity:1; 
stroke-linecap:round; stroke-linejoin:round;">
<path d="M2.0750 51.0750
L14.0750 51.0750
" />
<path d="M16.0750 49.0750
L16.0750 2.0750
" />
<path d="M0.0750 49.0750
L0.0750 2.0750
" />
<path d="M14.0750 0.0750
L2.0750 0.0750
" />
<path d="M14.0750 51.0750 A2.0000 2.0000 0.0 0 0 16.0750 49.0750" />
<path d="M16.0750 2.0750 A2.0000 2.0000 0.0 0 0 14.0750 0.0750" />
<path d="M2.0750 0.0750 A2.0000 2.0000 0.0 0 0 0.0750 2.0750" />
<path d="M0.0750 49.0750 A2.0000 2.0000 0.0 0 0 2.0750 51.0750" />
</g>
<g style="fill:#C2C200; fill-opacity:1.0000; stroke:none;">
<circle cx="8.0750" cy="43.0750" r="1.7145" /> 
</g>
<g style="fill:#C2C200; fill-opacity:1.0000; stroke:none;">
<circle cx="13.5750" cy="43.0750" r="0.8509" /> 
</g>
<g style="fill:#C2C200; fill-opacity:1.0000; stroke:none;">
<circle cx="2.5750" cy="43.0750" r="0.8509" /> 
</g>
<g style="fill:#C2C200; fill-opacity:1.0000; stroke:none;">
<circle cx="13.0750" cy="39.2750" r="0.6350" /> 
</g>
<g style="fill:#C2C200; fill-opacity:1.0000; stroke:none;">
<circle cx="8.0750" cy="37.1750" r="0.6350" /> 
</g>
<g style="fill:#C2C200; fill-opacity:1.0000; stroke:none;">
<circle cx="8.0750" cy="25.5750" r="1.7145" /> 
</g>
<g style="fill:#C2C200; fill-opacity:1.0000; stroke:none;">
<circle cx="13.5750" cy="25.5750" r="0.8509" /> 
</g>
<g style="fill:#C2C200; fill-opacity:1.0000; stroke:none;">
<circle cx="2.5750" cy="25.5750" r="0.8509" /> 
</g>
<g style="fill:#C2C200; fill-opacity:1.0000; stroke:none;">
<circle cx="13.0750" cy="21.7750" r="0.6350" /> 
</g>
<g style="fill:#C2C200; fill-opacity:1.0000; stroke:none;">
<circle cx="8.0750" cy="19.6750" r="0.6350" /> 
</g>
<g style="fill:#C2C200; fill-opacity:1.0000; stroke:none;">
<circle cx="8.0750" cy="8.0750" r="1.7145" /> 
</g>
<g style="fill:#C2C200; fill-opacity:1.0000; stroke:none;">
<circle cx="13.5750" cy="8.0750" r="0.8509" /> 
</g>
<g style="fill:#C2C200; fill-opacity:1.0000; stroke:none;">
<circle cx="2.5750" cy="8.0750" r="0.8509" /> 
</g>
<g style="fill:#C2C200; fill-opacity:1.0000; stroke:none;">
<circle cx="13.0750" cy="4.2750" r="0.6350" /> 
</g>
<g style="fill:#C2C200; fill-opacity:1.0000; stroke:none;">
<circle cx="8.0750" cy="2.1750" r="0.6350" /> 
</g>
<g style="fill:#840000; fill-opacity:1.0000; stroke:none;">
<circle cx="13.0750" cy="39.2750" r="1.0160" /> 
</g>
<g style="fill:#840000; fill-opacity:1.0000; stroke:none;">
<circle cx="8.0750" cy="37.1750" r="1.0160" /> 
</g>
<g style="fill:#840000; fill-opacity:1.0000; stroke:none;">
<circle cx="13.0750" cy="21.7750" r="1.0160" /> 
</g>
<g style="fill:#840000; fill-opacity:1.0000; stroke:none;">
<circle cx="8.0750" cy="19.6750" r="1.0160" /> 
</g>
<g style="fill:#840000; fill-opacity:1.0000; stroke:none;">
<circle cx="13.0750" cy="4.2750" r="1.0160" /> 
</g>
<g style="fill:#840000; fill-opacity:1.0000; stroke:none;">
<circle cx="8.0750" cy="2.1750" r="1.0160" /> 
</g>
<g style="fill:#FFFFFF; fill-opacity:1.0000; stroke:none;">
<circle cx="8.0750" cy="43.0750" r="1.7145" /> 
</g>
<g style="fill:#FFFFFF; fill-opacity:1.0000; stroke:none;">
<circle cx="13.5750" cy="43.0750" r="0.8509" /> 
</g>
<g style="fill:#FFFFFF; fill-opacity:1.0000; stroke:none;">
<circle cx="2.5750" cy="43.0750" r="0.8509" /> 
</g>
<g style="fill:#FFFFFF; fill-opacity:1.0000; stroke:none;">
<circle cx="13.0750" cy="39.2750" r="0.6350" /> 
</g>
<g style="fill:#FFFFFF; fill-opacity:1.0000; stroke:none;">
<circle cx="8.0750" cy="37.1750" r="0.6350" /> 
</g>
<g style="fill:#FFFFFF; fill-opacity:1.0000; stroke:none;">
<circle cx="8.0750" cy="25.5750" r="1.7145" /> 
</g>
<g style="fill:#FFFFFF; fill-opacity:1.0000; stroke:none;">
<circle cx="13.5750" cy="25.5750" r="0.8509" /> 
</g>
<g style="fill:#FFFFFF; fill-opacity:1.0000; stroke:none;">
<circle cx="2.5750" cy="25.5750" r="0.8509" /> 
</g>
<g style="fill:#FFFFFF; fill-opacity:1.0000; stroke:none;">
<circle cx="13.0750" cy="21.7750" r="0.6350" /> 
</g>
<g style="fill:#FFFFFF; fill-opacity:1.0000; stroke:none;">
<circle cx="8.0750" cy="19.6750" r="0.6350" /> 
</g>
<g style="fill:#FFFFFF; fill-opacity:1.0000; stroke:none;">
<circle cx="8.0750" cy="8.0750" r="1.7145" /> 
</g>
<g style="fill:#FFFFFF; fill-opacity:1.0000; stroke:none;">
<circle cx="13.5750" cy="8.0750" r="0.8509" /> 
</g>
<g style="fill:#FFFFFF; fill-opacity:1.0000; stroke:none;">
<circle cx="2.5750" cy="8.0750" r="0.8509" /> 
</g>
<g style="fill:#FFFFFF; fill-opacity:1.0000; stroke:none;">
<circle cx="13.0750" cy="4.2750" r="0.6350" /> 
</g>
<g style="fill:#FFFFFF; fill-opacity:1.0000; stroke:none;">
<circle cx="8.0750" cy="2.1750" r="0.6350" /> 
</g> 
</svg>
